<svg width="64" height="40" viewBox="0 0 64 40" fill="none" xmlns="http://www.w3.org/2000/svg">
<path d="M27.7884 8.90911C23.3677 7.6432 18.3622 11.5828 16.6089 17.7087C14.8555 23.8337 17.0181 29.8249 21.4388 31.0909C25.8595 32.3568 30.865 28.4171 32.6184 22.2913C34.3717 16.1663 32.2091 10.175 27.7884 8.90911ZM27.0436 14.663C26.939 15.9308 25.8259 16.8738 24.5581 16.7683C23.2904 16.6638 22.3473 15.5506 22.4528 14.2829C22.5574 13.0152 23.6705 12.0721 24.9383 12.1776C26.206 12.2822 27.1491 13.3953 27.0436 14.663Z" fill="white"/>
<path d="M43.7533 13.6945C40.3011 12.7069 36.3933 15.7826 35.0246 20.5652C33.656 25.3479 35.3438 30.0259 38.796 31.0136C42.2482 32.0021 46.156 28.9255 47.5247 24.1429C48.8933 19.3602 47.2055 14.6822 43.7533 13.6945ZM43.2449 19.2311C43.1403 20.4988 42.0272 21.4419 40.7595 21.3364C39.4917 21.2318 38.5487 20.1187 38.6541 18.851C38.7596 17.5832 39.8719 16.6401 41.1396 16.7456C42.4073 16.8502 43.3504 17.9634 43.2449 19.2311Z" fill="white"/>
</svg>
